<svg width="30" height="36" viewBox="0 0 30 36" fill="none" xmlns="http://www.w3.org/2000/svg">
<g filter="url(#filter0_d_85_81)">
<path d="M6.15283 24.5854L3.10058 29.2979L3.42538 30.8393L4.96238 30.5101L8.01318 25.8005C7.35734 25.453 6.73463 25.0463 6.15283 24.5854ZM19.0752 22.9397C19.0955 22.8976 19.1086 22.8512 19.1274 22.8063C19.2048 22.6381 19.2715 22.4655 19.3275 22.2886C19.3343 22.2558 19.342 22.2248 19.3507 22.1958C19.4064 22.0007 19.4538 21.8033 19.4928 21.6042V21.5738C19.7756 19.8787 19.2826 17.9879 18.1545 16.2798L19.764 13.7945C21.6185 14.0309 23.2222 13.564 23.9936 12.3706C25.332 10.3073 23.7036 6.87222 20.3614 4.69577C17.0162 2.51787 13.223 2.42652 11.8876 4.48697C11.1133 5.68177 11.3395 7.33912 12.3124 8.94282L10.7 11.4281C8.68598 11.0903 6.76183 11.4049 5.33068 12.3561C5.32101 12.3581 5.3128 12.3619 5.30603 12.3677C5.13925 12.482 4.97857 12.605 4.82463 12.736C4.79998 12.7563 4.77098 12.7752 4.75068 12.7955C4.61141 12.9184 4.48016 13.0502 4.35773 13.1899C4.32873 13.2247 4.28813 13.2551 4.26058 13.2914C4.10567 13.4659 3.96505 13.6526 3.84008 13.8496C1.83328 16.9425 3.54573 21.6231 7.65793 24.3027C11.773 26.9823 16.7349 26.643 18.7374 23.5501C18.865 23.3539 18.9776 23.1504 19.0752 22.9397ZM17.8935 8.50057C16.6073 7.66392 15.9795 6.34442 16.4942 5.54837C17.0075 4.75522 18.4677 4.79147 19.7509 5.62812C21.04 6.46477 21.662 7.78717 21.1502 8.58032C20.6383 9.37347 19.1811 9.33722 17.8935 8.50057Z" fill="#F00000"/>
</g>
<defs>
<filter id="filter0_d_85_81" x="0" y="0" width="29.462" height="35.8393" filterUnits="userSpaceOnUse" color-interpolation-filters="sRGB">
<feFlood flood-opacity="0" result="BackgroundImageFix"/>
<feColorMatrix in="SourceAlpha" type="matrix" values="0 0 0 0 0 0 0 0 0 0 0 0 0 0 0 0 0 0 127 0" result="hardAlpha"/>
<feOffset dx="1" dy="1"/>
<feGaussianBlur stdDeviation="2"/>
<feComposite in2="hardAlpha" operator="out"/>
<feColorMatrix type="matrix" values="0 0 0 0 0 0 0 0 0 0 0 0 0 0 0 0 0 0 0.37 0"/>
<feBlend mode="normal" in2="BackgroundImageFix" result="effect1_dropShadow_85_81"/>
<feBlend mode="normal" in="SourceGraphic" in2="effect1_dropShadow_85_81" result="shape"/>
</filter>
</defs>
</svg>
